<svg xmlns="http://www.w3.org/2000/svg" viewBox="0 0 1074.69 278.83"><defs><style>.cls-1{fill:#273586;}.cls-2{fill:#ff5100;}</style></defs><g id="Layer_2" data-name="Layer 2"><g id="Layer_1-2" data-name="Layer 1"><path class="cls-1" d="M568.2,257.06a49.34,49.34,0,0,1-18.71-18.35,54.17,54.17,0,0,1,0-53,49.42,49.42,0,0,1,18.71-18.35,54.11,54.11,0,0,1,51.87,0,49.09,49.09,0,0,1,18.56,18.35,54.73,54.73,0,0,1,0,53A48.92,48.92,0,0,1,620,257.06a54,54,0,0,1-51.8,0Zm41.87-15.47a28.15,28.15,0,0,0,10.79-11.73,38.46,38.46,0,0,0,3.88-17.7,38,38,0,0,0-3.88-17.62A27.77,27.77,0,0,0,610.07,183a31.18,31.18,0,0,0-16-4,31.56,31.56,0,0,0-16.05,4,27.62,27.62,0,0,0-10.86,11.59,38,38,0,0,0-3.89,17.62,38.46,38.46,0,0,0,3.89,17.7,28,28,0,0,0,10.86,11.73,31.11,31.11,0,0,0,16.05,4.1A30.74,30.74,0,0,0,610.07,241.59Z"/><path class="cls-1" d="M748.35,262.67H728.2l-45.61-68.92v68.92H662.44V162.09h20.15l45.61,69.07V162.09h20.15Z"/><path class="cls-1" d="M790.5,178.49v25.18h33.82v16H790.5v26.62h38.13v16.4H770.36V162.09h58.27v16.4Z"/><path class="cls-1" d="M859.29,170.29v37.56h38.13v8.34H859.29v38.13h42.44v8.35H849.21V162h52.52v8.34Z"/><path class="cls-1" d="M977.28,262.67l-24.9-42H933.82v42H923.75V162.09H954q16.83,0,25.54,8.06t8.7,21.15A28.54,28.54,0,0,1,982,209.93q-6.26,7.71-18.49,10l25.9,42.74Zm-43.46-50.22h20.29q11.79,0,17.77-5.75t6-15.4q0-9.93-5.75-15.33T954,170.58H933.82Z"/><path class="cls-1" d="M1066.2,211.88q-8.49,7.91-25.47,7.91h-20.29v42.88h-10.07V162.09h30.36q16.83,0,25.4,7.91t8.56,21Q1074.69,204,1066.2,211.88ZM1064.33,191q0-10.06-5.61-15.25t-18-5.18h-20.29v40.58h20.29Q1064.33,211.16,1064.33,191Z"/><path class="cls-2" d="M278.31,5.36h0c.16-.09.09,0,0,0"/><path class="cls-2" d="M376.35,194.48c.92,1.9-35.18,11.27-38.8,11.77a111.86,111.86,0,0,1-50.71-4.72c-12.08-4-22.77-11-33.67-17.48A165.09,165.09,0,0,0,201.53,164a156.89,156.89,0,0,0-51.25-1.37l41.05-85.83a14.12,14.12,0,0,1,25.14-.65c5.9,10.93,11.52,22,17.06,33.11,5.12,10.2,9.75,20.88,16.67,30,9.34,12.36,21.68,21.68,35.49,28.55a81.49,81.49,0,0,0,36.3,8.78A91,91,0,0,0,358.36,169s.07,0,.05,0c.73-.32,1.47-.61,2.2-1-15.44-31.25-69.5-138.11-82.3-162.67-.16.09-.07,0,0,0A16.66,16.66,0,0,0,266.09,0H144.36a16.59,16.59,0,0,0-14.83,9.18L.71,266.79a6.66,6.66,0,0,0,6,9.64H84.54a18,18,0,0,0,16.19-10.2l1.27-2.64c7.42-13,25.92-23.51,38.92-28.41,18.43-6.92,38.32-7.33,56.62.14,13,5.32,24.45,13.44,36.58,20.34,40.39,23,91.66,28.8,136.63,17.76,3.26-.78,38.75-12.64,38-14.11Z"/><polygon class="cls-2" points="397.52 5.17 383.84 5.17 383.84 47.55 378.28 47.55 378.28 5.17 364.63 5.17 364.63 0.14 397.52 0.14 397.52 5.17"/><path class="cls-2" d="M453.28,47.55h-5.51V15.76c0-2.52.14-5.6.46-9.23h-.14a32.82,32.82,0,0,1-1.41,4.6L430.47,47.55h-2.7L411.6,11.38a27.4,27.4,0,0,1-1.41-4.85H410c.18,1.9.27,5,.27,9.29V47.55H405V.14h7.34L426.84,33.2A42.31,42.31,0,0,1,429,38.89h.2c.95-2.61,1.72-4.54,2.29-5.83L446.34.14h6.94Z"/></g></g></svg>