<svg xmlns="http://www.w3.org/2000/svg" viewBox="0 0 1080 273.12"><defs><style>.cls-1{fill:#273586;}.cls-2{fill:#ff5100;}</style></defs><g id="Layer_2" data-name="Layer 2"><g id="Layer_1-2" data-name="Layer 1"><path class="cls-1" d="M19.67,268.14a37.23,37.23,0,0,1-14.08-13.8,40.82,40.82,0,0,1,0-39.84,37.23,37.23,0,0,1,14.08-13.8,39.11,39.11,0,0,1,19.48-5,39,39,0,0,1,19.54,5,36.94,36.94,0,0,1,14,13.8,41.17,41.17,0,0,1,0,39.84,36.86,36.86,0,0,1-14,13.8,39.18,39.18,0,0,1-19.49,5A39.11,39.11,0,0,1,19.67,268.14Zm31.5-11.63a21.2,21.2,0,0,0,8.12-8.83,29,29,0,0,0,2.92-13.31,28.73,28.73,0,0,0-2.92-13.26,20.9,20.9,0,0,0-8.12-8.72,23.44,23.44,0,0,0-12-3,23.7,23.7,0,0,0-12.07,3,20.76,20.76,0,0,0-8.17,8.72A28.6,28.6,0,0,0,16,234.37a28.9,28.9,0,0,0,2.92,13.31,21.05,21.05,0,0,0,8.17,8.83,23.43,23.43,0,0,0,12.07,3.08A23.17,23.17,0,0,0,51.17,256.51Z"/><path class="cls-1" d="M155.31,272.36H140.15l-34.31-51.85v51.85H90.68V196.7h15.16l34.31,52v-52h15.16Z"/><path class="cls-1" d="M186.91,209V228h25.44v12H186.91v20H215.6v12.34H171.76V196.7H215.6V209Z"/><path class="cls-1" d="M238.66,202.87v28.25h28.69v6.28H238.66v28.69H270.6v6.27H231.09V196.59H270.6v6.28Z"/><path class="cls-1" d="M327.43,272.36,308.7,240.75h-14v31.61h-7.58V196.7h22.73q12.67,0,19.22,6.06t6.55,15.91a21.5,21.5,0,0,1-4.71,14q-4.71,5.79-13.91,7.52l19.48,32.15Zm-32.69-37.78H310q8.88,0,13.37-4.33t4.49-11.58q0-7.47-4.33-11.53t-13.64-4.06H294.74Z"/><path class="cls-1" d="M394.33,234.15q-6.39,6-19.16,6H359.91v32.25h-7.58V196.7h22.84q12.66,0,19.11,6t6.44,15.8Q400.72,228.2,394.33,234.15Zm-1.41-15.7q0-7.57-4.22-11.47t-13.53-3.9H359.91v30.53h15.26Q392.93,233.61,392.92,218.45Z"/><path class="cls-2" d="M111.43,5.53h0c.07,0,0,0,0,0"/><path class="cls-2" d="M150.68,81.25c.38.77-14.08,4.51-15.53,4.71a44.72,44.72,0,0,1-20.31-1.88c-4.84-1.62-9.12-4.42-13.48-7a66.19,66.19,0,0,0-20.67-8,62.55,62.55,0,0,0-20.52-.54L76.6,34.12a5.66,5.66,0,0,1,10.07-.25c2.37,4.37,4.61,8.81,6.83,13.25,2,4.09,3.91,8.37,6.68,12a39.72,39.72,0,0,0,14.2,11.45,32.66,32.66,0,0,0,14.54,3.51,36.28,36.28,0,0,0,14.56-3s0,0,0,0l.88-.38c-6.18-12.52-27.83-55.3-32.95-65.13h0a6.65,6.65,0,0,0-4.89-2.15H57.8a6.65,6.65,0,0,0-5.94,3.67L.28,110.2a2.67,2.67,0,0,0,2.39,3.86H33.85A7.18,7.18,0,0,0,40.33,110l.5-1c3-5.23,10.38-9.43,15.59-11.38a30.75,30.75,0,0,1,22.68.06c5.2,2.12,9.78,5.38,14.64,8.14,16.17,9.19,36.69,11.52,54.7,7.11,1.3-.32,15.51-5.07,15.22-5.65,0,0-13-25.95-13-26"/><path class="cls-2" d="M305.85,88.38v25.28H180.77l.31-18.87,69.07-62.47H182.81V7.23a3.85,3.85,0,0,1,3.86-3.85H304.21a4.47,4.47,0,0,1,4.47,4.47V21.94L240.25,84.71h61.93a3.67,3.67,0,0,1,3.67,3.67"/><path class="cls-2" d="M340.83,3.38h110a3.56,3.56,0,0,1,3.57,3.55V30.75h-74.9c0,10.71-.16,11.18-.16,14.79H443.2V72.28H379.47V86.13h76.94V109a4.69,4.69,0,0,1-4.68,4.69H341.07a4.23,4.23,0,0,1-4.23-4.23L337,7.21a3.82,3.82,0,0,1,3.83-3.83"/><path class="cls-2" d="M529.41,60.33c0,7.08-.14,12.44-.17,48.42a4.91,4.91,0,0,1-4.91,4.92H492.92a5.22,5.22,0,0,1-5.21-5.21V3.38h26.75l69.85,50.34c0-6.52.3-11.72.32-46.29a4,4,0,0,1,4-4H621.4a4.13,4.13,0,0,1,4.13,4.14V113.67H602.88Z"/><path class="cls-2" d="M741,113.82h-43l-.16-80.71H649.14V6.63a3.24,3.24,0,0,1,3.24-3.25H786.05a3.73,3.73,0,0,1,3.74,3.74v26H741Z"/><path class="cls-2" d="M820.48,3.38h33.15a4.9,4.9,0,0,1,4.9,4.9V113.67H815.9V8a4.58,4.58,0,0,1,4.58-4.58"/><path class="cls-2" d="M965.68,116.5C923,116.5,887.33,97,887.33,58.6,887.33,18.79,920.2.39,965.68.39S1044,21,1044,59.07c0,38.39-34.93,57.43-78.35,57.43m0-85.9c-24.54,0-37.6,11.64-37.6,28.47,0,15.73,13.06,27.7,37.6,27.7s37.59-11.5,37.59-27.7c0-16.51-13.2-28.47-37.59-28.47"/><polygon class="cls-2" points="1057.68 2.01 1052.19 2.01 1052.19 18.98 1049.97 18.98 1049.97 2.01 1044.51 2.01 1044.51 0 1057.68 0 1057.68 2.01"/><path class="cls-2" d="M1080,19h-2.21V6.25c0-1,.06-2.24.19-3.7h-.06a12.56,12.56,0,0,1-.56,1.84L1070.87,19h-1.09L1063.32,4.5a9.58,9.58,0,0,1-.58-1.95h0c.07.77.1,2,.1,3.72V19h-2.14V0h2.94l5.82,13.23a17.3,17.3,0,0,1,.88,2.28h.08c.38-1,.68-1.82.91-2.33L1077.22,0H1080Z"/></g></g></svg>