<svg xmlns="http://www.w3.org/2000/svg" viewBox="0 0 1080 416.79"><defs><style>.cls-1{fill:#c42121;}</style></defs><g id="Layer_2" data-name="Layer 2"><g id="Layer_1-2" data-name="Layer 1"><path class="cls-1" d="M573.77,279.3c-.57-30.88,9-58.54,27.53-83,13.12-17.34,30.32-29.59,50.25-38.16,13.52-5.81,27.66-9.26,42.1-12,13-2.48,26-2.12,39-1a159.25,159.25,0,0,1,73.66,25.16c23,15,38.64,36,47.47,61.9A178.06,178.06,0,0,1,859.71,253c2.2,10.59,2.09,21.42,1.93,32.2-.13,8.71-.55,17.41-2.37,25.95-7.68,36-26.86,64.18-58.27,83.73A136.92,136.92,0,0,1,769.07,409c-9.54,3-19.15,5.82-29.13,6.81-6.88.68-13.82.84-20.74,1a168.52,168.52,0,0,1-50.71-6.67c-24.36-7.16-45.5-19.61-62.41-38.76-10.6-12-18.3-25.69-24.06-40.6a121.68,121.68,0,0,1-8.24-41.35C573.71,286,573.77,282.66,573.77,279.3Zm208.7,3.32c-.3-5.72-.3-11.48-.94-17.16a53.67,53.67,0,0,0-12.94-30,76.21,76.21,0,0,0-10.11-9.11c-6.76-5.38-14.37-9.21-23-10.42a158.93,158.93,0,0,0-17.73-1.29,85,85,0,0,0-18,1.31c-8.55,1.6-16,5.51-23,10.5a53.41,53.41,0,0,0-21.31,31.81c-3.33,13.65-3.32,27.44-.94,41.2,3.12,18,12.92,31.34,28.8,40.29,5.82,3.29,11.94,5.83,18.64,6.51,6,.61,12,1,18,1.17a64.67,64.67,0,0,0,28.79-6c16.92-7.77,27-21.14,31.75-38.76C782.29,296.13,782.23,289.36,782.47,282.62Z"/><path class="cls-1" d="M126.89,409.4V152.11c2.44-.64,70.92-.73,74.08-.1.06.9.13,1.86.18,2.83.18,3.35.34,6.71.54,10.06a11.42,11.42,0,0,0,.37,2.34c.65,2.26,1.72,2.72,3.71,1.57a10.81,10.81,0,0,0,2.37-1.76c9-9.23,20.42-14.08,32.6-17.36,6.1-1.65,12.27-3.05,18.44-4.43a29.94,29.94,0,0,1,5.61-.49c12.27-.36,24.54-.38,36.72,1.51,12.93,2,25.24,5.76,36.4,12.79,9.94,6.27,17.32,14.83,23.07,25,6.57,11.66,9.83,24.25,11.93,37.32,2.45,15.18,3,30.48,3.19,45.8.16,16.71.17,33.42.12,50.13-.09,29.36-.28,58.73-.42,88.09,0,1.17,0,2.34,0,3.44-2.43.68-74.74.8-78,.16a21.91,21.91,0,0,1-.23-2.22c-.23-22.14-.38-44.29-.68-66.43q-.51-37.06-1.28-74.13a109.22,109.22,0,0,0-1-15.37c-1.63-10-4.93-19.42-12.4-26.7-5.82-5.68-12.65-9.43-21.14-9.3-5.94.08-11.88-.1-17.81.11a27,27,0,0,0-12.76,3.41c-6.81,3.91-12.67,8.9-16.84,15.54A48,48,0,0,0,206,258c-.4,11.06-.91,22.12-1,33.19-.25,22.05-.18,44.1-.4,66.14-.17,16.31-.6,32.62-.95,48.93a33.43,33.43,0,0,1-.59,4Z"/><path class="cls-1" d="M499.21,409.22H422.27v-3.09L422.06,343c-.11-32.83-.29-65.65-.31-98.48q0-71.19.19-142.38a288.75,288.75,0,0,1,1.7-31.67c3.05-26.57,15.95-47,39.56-60.18a70.72,70.72,0,0,1,19.5-7c3.57-.78,7.09-2,10.69-2.35C499.78.33,506.22,0,512.64,0q19.61,0,39.19.48a77.84,77.84,0,0,1,11.72,1.59,19.11,19.11,0,0,1,4.36,1.82,3.3,3.3,0,0,1,1.94,3.89c-1.37,9.71-1.46,19.5-1.75,29.28-.23,8-.64,16-1,24a19.66,19.66,0,0,1-.34,2.64c-.72,3.89-1.61,4.68-5.64,4.18a53.69,53.69,0,0,1-7.78-1.77c-12.41-3.5-24.5-2.71-36.07,3-6.89,3.4-11.29,9.16-13.86,16.33a53,53,0,0,0-3.29,15.91,427.9,427.9,0,0,0,.34,43c0,.4,0,.79.1,1.18.37,3.39,1.4,4.51,4.84,4.84,2.76.27,5.53.43,8.3.46,13,.15,25.92.22,38.89.35a19,19,0,0,1,3.52.4c2.7.56,3.55,1.43,3.76,4.16.3,3.64.61,7.3.58,11-.12,12.85-.36,25.7-.62,38.55a32.75,32.75,0,0,1-.68,5.28,2.92,2.92,0,0,1-3,2.73c-4.94.2-9.87.55-14.81.65-11.08.23-22.17.19-33.24.56-7.79.26-6.53.76-6.85,6.71-.55,10.06-.74,20.15-.85,30.23-.3,26.4-.47,52.8-.67,79.2q-.3,37.07-.55,74.15C499.2,406.11,499.21,407.49,499.21,409.22Z"/><path class="cls-1" d="M974.62,409.26h-78c-.06-1.3-.17-2.45-.17-3.6-.07-31.73-.19-63.47-.19-95.2q0-70.87.12-141.76c0-4.54.31-9.08.53-13.62.12-2.56.61-3.21,3.13-3.42,4-.34,8.09-.62,12.13-.6,20,.11,40,.32,60,.51.78,0,1.55.11,2.57.19.08,1.15.16,2.22.25,3.28.36,4.23.57,8.47,1.14,12.67.4,3,1.33,3.3,4,1.75a16.26,16.26,0,0,0,2.86-2.09c6.31-5.78,13.79-9.59,21.66-12.63a147.87,147.87,0,0,1,32.32-8.6c7.22-1,14.56-1.36,21.87-1.69,5.42-.24,10.87,0,16.31.11,3.12.08,3.68.58,4,3.59.35,3.73.61,7.48.65,11.23.17,16.31.25,32.62.36,48.93v3.2c-1.33-.07-2.3-.1-3.26-.17-10.75-.76-21.49-1.6-32.24-2.26a70.94,70.94,0,0,0-11.57,0c-11.9,1.24-23,4.79-32.5,12.39a45.73,45.73,0,0,0-5.79,5.93,73.8,73.8,0,0,0-4.41,5.95,53,53,0,0,0-7.94,16.4c-2.33,8.42-4.27,16.86-4.76,25.57-.61,10.85-1.16,21.72-1.34,32.58-.55,32.81-.91,65.63-1.36,98.44C974.82,407.24,974.71,408.11,974.62,409.26Z"/><path class="cls-1" d="M78.84,409.26c-1.18.07-2.24.17-3.3.18l-36.81.36c-5,.05-10.08.21-15.13.17-5.63,0-11.27-.24-16.9-.37-.6,0-1.19-.08-1.78-.14C.84,409,.72,409,.69,404.77.44,367.42.12,330.06,0,292.7c-.08-28.07.1-56.14.26-84.21.08-14.92.35-29.85.58-44.77,0-2.86.22-5.72.4-8.58.14-2.33.84-3.2,3.21-3.46a90.49,90.49,0,0,1,9.45-.62q26.57,0,53.12.16c3,0,5.93.26,8.89.46,2.15.14,2.43.24,2.61,2.39.32,3.83.51,7.69.53,11.54q.2,45.51.28,91,.06,41.37-.08,82.73c-.06,22.34-.2,44.67-.3,67C79,407.25,78.89,408.12,78.84,409.26Z"/><path class="cls-1" d="M78.8,105.27l-77.2.67c-.4-2-1.07-3.84-1.07-5.65C.51,89.53.65,78.77.72,68a6,6,0,0,1,2.61-5c7.31-5.23,14.56-10.56,21.94-15.7C40.6,36.58,56,26,71.37,15.37c1.84-1.27,3.62-2.64,5.35-3.91a3.88,3.88,0,0,1,2.12,3.68c.27,4,.62,8.09.61,12.13-.06,20.76-.22,41.51-.35,62.26q0,6.23-.1,12.45C79,103,78.88,103.92,78.8,105.27Z"/></g></g></svg>