<?xml version="1.0" encoding="utf-8"?>
<!-- Generator: Adobe Illustrator 26.0.3, SVG Export Plug-In . SVG Version: 6.00 Build 0)  -->
<svg version="1.1" id="Layer_1" xmlns="http://www.w3.org/2000/svg" xmlns:xlink="http://www.w3.org/1999/xlink" x="0px" y="0px"
	 viewBox="0 0 1022.2 355.1" style="enable-background:new 0 0 1022.2 355.1;" xml:space="preserve">
<style type="text/css">
	.st0{fill:#381E95;}
	.st1{fill:#0B51D2;}
	.st2{fill:#4C7EEA;}
	.st3{fill:#5479E2;}
	.st4{fill:#4881EE;}
	.st5{fill:#507BE6;}
	.st6{fill:#2434B0;}
	.st7{fill:#1347C7;}
	.st8{fill:#1E3BB8;}
	.st9{fill:#1644C3;}
	.st10{fill:#2137B4;}
	.st11{fill:#2731AC;}
	.st12{fill:#1C3EBC;}
	.st13{fill:#1941BF;}
	.st14{fill:#4281F2;}
	.st15{fill:#104BCB;}
	.st16{fill:#4482F2;}
	.st17{fill:#0D4ECF;}
	.st18{fill:#5C74DA;}
	.st19{fill:#5777DF;}
	.st20{fill:#2A2EA8;}
	.st21{fill:#2D2BA5;}
	.st22{fill:#636FD2;}
	.st23{fill:#2F27A1;}
	.st24{fill:#6072D6;}
	.st25{fill:#6F50C0;}
	.st26{fill:#5877DE;}
	.st27{fill:#33239C;}
	.st28{fill:#666ACF;}
	.st29{fill:#3027A0;}
	.st30{fill:#2A2EA9;}
	.st31{fill:#6E59C6;}
	.st32{fill:#33249C;}
	.st33{fill:#6965CD;}
	.st34{fill:#352199;}
	.st35{fill:#6B50B9;}
	.st36{fill:#371F97;}
	.st37{fill:#6D50BC;}
	.st38{fill:#C2B7F2;}
	.st39{fill:#9F8ADC;}
	.st40{fill:#563DA9;}
	.st41{fill:#6144B5;}
	.st42{fill:#634FBE;}
	.st43{fill:#625DC7;}
	.st44{fill:#6B60CA;}
	.st45{fill:#5873D7;}
	.st46{fill:#694FB7;}
	.st47{fill:#654CB3;}
	.st48{fill:#8399F1;}
	.st49{fill:#8995EB;}
	.st50{fill:#8697ED;}
	.st51{fill:#7B84DF;}
	.st52{fill:#A79FED;}
	.st53{fill:#6F54C3;}
	.st54{fill:#AEA2ED;}
	.st55{fill:#6C5DC8;}
	.st56{fill:#9A99EB;}
	.st57{fill:#8F95E9;}
	.st58{fill:#B4A6EF;}
	.st59{fill:#BDB1F1;}
	.st60{fill:#6F55C3;}
	.st61{fill:#6C4FBB;}
	.st62{fill:#A19CEB;}
	.st63{fill:#BAABEF;}
	.st64{fill:#6B61CA;}
	.st65{fill:#9597E9;}
	.st66{enable-background:new    ;}
</style>
<g>
	<g>
		<path class="st0" d="M188.1,132c-0.9-9.5-5.8-17-12.3-23.7c-0.7-2.5,1.1-4.2,2.5-5.6c10.7-10.5,20.4-21.9,31.1-32.3
			c0.7-0.7,1.5-1.3,2.5-1.5c9.1,3.1,18.4,5.6,27.2,9.4c16.5,7.1,25.5,21.4,24.6,37.8c-0.6,1.8-0.7,3.6-0.9,5.5
			c-1.5,6-5.6,9.9-10.6,13.1c-2.4,1.5-4.8,2.9-7.1,4.4c-16.7,9.2-34.2,17-51.6,24.9c-1.8,0.8-4.1,2.3-5.2-1.1
			C188.3,152.5,189,142.2,188.1,132z"/>
		<path class="st1" d="M0.2,105c0-28.9-0.4-57.8,0-86.7C0.4,2.8,10.1-3.4,24.8,1.8C42.6,8.1,60.3,14.6,78,21.1
			c1.5,2.5-0.6,3.7-1.9,5C62.7,40.4,49.2,54.7,35.6,68.8c-11,11.5-21.9,23.2-33,34.6C1.9,104.2,1.5,105.2,0.2,105z"/>
		<path class="st2" d="M263.9,253c0.1,5.7,1.1,11.5-0.9,17.1c-1.4-3.9-3.6-4-7.3-2.6c-30.6,12-61.4,23.8-92.1,35.6
			c-28.4,10.9-56.8,22-85.2,32.8c-3.3,1.2-6.4,2.6-9.6,4.2c-1.7-4.7-0.7-9.5-0.7-14.2c6.2-0.6,11.7-3.8,17.3-6
			c57.4-22.2,114.8-44.2,172.2-66.4C259.7,252.9,261.7,251.5,263.9,253z"/>
		<path class="st3" d="M68.2,319.9c0-3.6,0-7.3,0-10.9c5.2-0.2,9.5-3,14.1-4.8c17.2-6.6,34.7-12.7,51.6-20.2
			c12.8-2.8,25.4-6.5,36.6-13.6c1.4-0.9,2.7-1.9,4.4-2.4c7.4-0.9,13.9-4.4,20.7-7c20.9-8.1,41.8-16,62.7-24.1
			c1.8-0.7,3.6-1.8,5.7-0.9c0,3,0,6,0,9c-2,2.5-5.1,3.1-7.8,4.1c-47.2,18.2-94.4,36.3-141.5,54.6c-13.3,5.2-26.7,10.2-40.1,15.4
			C72.5,319.9,70.4,320.8,68.2,319.9z"/>
		<path class="st4" d="M68.9,340.2c0.2-2.3,2.1-2.7,3.8-3.3c52.8-20.3,105.5-40.7,158.3-61c8.7-3.3,17.3-6.7,26-10
			c5.8-2.2,5.9-2.2,6,4.2c-0.1,1.4,0.3,2.9-1,3.9c-12.9,3.6-25,9-37.4,13.8c-48.4,18.7-96.8,37.4-145.2,56c-2.8,1.1-5.4,2.6-8.3,3.2
			C69.4,345,68.9,342.7,68.9,340.2z"/>
		<path class="st5" d="M68.2,319.9c31.4-12.1,62.9-24.1,94.3-36.2c31-11.9,62-23.8,92.9-35.7c2.8-1.1,5.6-2,8.4-3c0,2.7,0,5.3,0,8
			c-16.6,6.3-33.2,12.6-49.8,18.9c-29.4,11.3-58.9,22.6-88.3,34c-17.3,6.7-34.7,13.4-52,20.1c-1.9,0.7-3.8,2.5-5.7,0
			C68.2,324,68.2,321.9,68.2,319.9z"/>
		<path class="st6" d="M53.9,162.3c-3.3-1.2-6.6-2.3-9.8-3.5c-0.7-2.6,1.1-4.1,2.6-5.5c9.2-8.7,17.4-18.3,26.2-27.4
			c20.8-21.6,41.3-43.7,62.2-65.2c3.7-3.8,7-8,10.9-11.6c1.4-1.3,2.7-3,5.1-2c2.9,0.5,5.6,1.5,8.1,2.9c-1.9,5.6-6.3,9.3-10.2,13.2
			c-10.7,10.7-21,21.7-31.3,32.7C97.2,117.7,76.2,139,56,161C55.4,161.6,54.7,162,53.9,162.3z"/>
		<path class="st7" d="M2,140c-1-0.7-1.2-1.6-1.1-2.7c-0.9-3.1-0.2-6.3-0.4-9.4c-0.1-1.2,0.3-2.3,1.3-3.1c4.4-3.6,7.6-8.3,11.6-12.3
			c17.3-17.2,33.8-35.3,50.6-53c8.5-8.9,17.6-17.2,25.3-26.8c1.9-2.4,3.8-5.8,8-4.7c3.1,0.6,6,1.6,8.7,3.1c0.1,1.9-1,3.2-2.2,4.3
			c-6.2,5.8-11.4,12.6-17.4,18.5c-10.5,10.3-20.6,21.2-30.7,32c-15.8,16.8-31.9,33.3-47.6,50.3C6.5,137.9,4.9,140,2,140z"/>
		<path class="st8" d="M36,155.9c-3-1-6-2.1-9-3.1c-1.8-2.5,0.3-4,1.6-5.6c9-10.6,19.1-20.4,28.7-30.5
			c10.9-11.4,21.7-22.9,32.7-34.2c12.5-12.9,24.4-26.3,37.2-38.9c1.9-1.8,3.6-4.1,6.8-2.6c2.9,0.4,5.6,1.5,8.2,2.9
			c-5.7,6-11.4,12-17.2,18C114.8,72.5,104.7,83.3,94.5,94c-18.5,19.3-36.8,38.7-55.3,58.1C38,153.3,37.3,154.8,36,155.9z"/>
		<path class="st9" d="M2,140c11.5-10.5,21.7-22.3,32.4-33.7c0.6-0.6,1.1-1.3,1.7-1.9c11-11.3,22-22.5,32.9-34
			c12.4-13.1,24.7-26.3,37.1-39.5c3.9,0.9,7.6,2.1,11.1,4c-10.6,8.4-19,19-28.2,28.8C81,72.1,73.1,80.4,65.2,88.7
			c-10.5,11.2-21,22.2-31.7,33.2c-7.2,7.4-14.4,14.8-21.3,22.4c-0.7,0.7-1.2,1.6-2.3,1.8C6.9,144.7,3.7,143.4,2,140z"/>
		<path class="st10" d="M36,155.9c-0.2-1.8,0.7-3.1,2-4.3c4.9-4.9,9.6-10,14.4-15.1c11-11.9,22.7-23.2,33.8-35.1
			c12.9-13.8,25.9-27.5,39-41.1c4.2-4.4,8.3-9,12.6-13.4c1.3-1.3,2.4-2.8,4.5-2.9c3.1,0.6,6,1.6,8.8,3.1c-5.4,2.3-8.5,7.2-12.4,11.2
			c-1.7,1.7-3.2,3.8-4.9,5.6c-17.3,18-34.8,35.8-51.8,53.9c-11.4,12.1-22.6,24.3-34.3,36.1c-1.4,1.4-2.6,3-3.5,4.8
			C41.4,157.8,38.7,156.9,36,155.9z"/>
		<path class="st11" d="M53.9,162.3c1.7-3.1,4-5.6,6.5-8.2c17.3-17.9,34.8-35.7,51.9-53.9c12.2-13,24.2-26,36.7-38.7
			c3.6-3.6,6.8-7.7,10.2-11.5c2.8,0.4,5.4,1.4,8,2.8c1.4,3.2-1.2,4.5-2.9,6.2c-11.2,11.1-21.7,23-32.8,34.2
			c-0.8,0.8-1.9,1.5-1.7,2.8c-0.5,0.8-1.1,1.5-1.6,2.3c-2.1,0.8-3.6,2.4-5.1,3.9c-19.3,21.2-39.5,41.4-58.9,62.4
			c-0.3,0.4-0.8,0.6-1.3,0.8C59.9,164.4,56.9,163.3,53.9,162.3z"/>
		<path class="st12" d="M134.1,41.1c-1.4,0-2.7,0.1-3.7,1.2c-5.8,6.2-12.4,11.5-17.6,18.3c-0.6,0.8-1.3,1.5-1.9,2.2
			C100,74,88.9,85,78.3,96.4c-13.4,14.3-26.8,28.5-40.5,42.6c-3.1,3.2-5.9,6.8-9.1,9.9c-1.1,1.1-1.8,2.3-1.7,4c-2.7-1-5.4-1.9-8-2.9
			c-1.8-0.9-1.2-2.1-0.4-3.3c1.5-2,2.9-4.1,4.6-5.9C31.1,133,38.3,124.8,46,117c23.2-23.8,45.5-48.4,68.9-72.1
			c2.6-2.6,4.2-6,7.2-8.2C126.2,37.8,130.3,39.1,134.1,41.1z"/>
		<path class="st13" d="M122.1,36.7c-1.3,4.1-4.4,6.9-7.2,9.9c-10.9,11.4-22.1,22.5-32.9,34c-12.7,13.6-25.7,26.8-38.3,40.5
			c-7.9,8.5-16.8,16.1-23.8,25.4c-0.8,1.1-2.1,1.8-1,3.4c-3.2-0.8-6.2-2.1-9-3.7c0.8-1.7,1.6-3.2,2.9-4.6
			c8.3-8.6,16.6-17.2,24.8-25.8c15.5-16.2,31-32.3,46.5-48.5c9.2-9.7,18.3-19.6,27.5-29.4c1.5-1.6,3-3.2,5.5-2.9
			C118.4,36.8,120.8,35.3,122.1,36.7z"/>
		<path class="st14" d="M255,287c-5.1,6.6-11.3,11.2-19.3,14.1c-33,11.6-65.8,23.7-98.7,35.5c-16.2,5.9-32.5,11.5-48.8,17.3
			c-3.1,0.8-6.2,0.6-9.2,0.1l0,0c-0.1-3.5,2.8-3.8,5-4.6c15.9-6.4,31.9-12.4,47.9-18.6c32.7-12.7,65.5-25.2,98.2-37.9
			c7-2.7,13.9-5.6,21-7.9C252.7,284.5,255.5,282.8,255,287z"/>
		<path class="st15" d="M97.4,28c-4,0.8-6.1,4.1-8.3,6.8c-2.5,3.1-5.3,5.9-8.1,8.8c-16.4,17.1-33,34-49.2,51.4
			c-9.7,10.4-19.5,20.7-29.5,30.9C1.3,126.9,1,128,1,129.3c0,2.7-0.1,5.3-0.1,8c-1.6-7.4-0.6-14.9-0.7-22.3c1.3-3,3.8-5.1,6-7.2
			C15,99.1,23.4,90,31.8,81.1c17.5-18.5,35.4-36.5,52.4-55.5c0.6-0.6,1.1-1.3,1.9-1.6C90,24.8,93.8,26.1,97.4,28z"/>
		<path class="st16" d="M255,287c-0.2-2.1-1.2-1.8-2.8-1.2c-23.4,9-46.7,18.1-70.1,27.1c-29.4,11.3-58.9,22.5-88.2,34
			c-5.2,2-11,2.8-15.1,7.1c-2.1-0.2-3.8-1.1-4.9-2.9c-1.3-3.7,1.8-4.2,3.9-5.1c9.6-3.8,19.2-7.4,28.8-11.2
			c37.2-14.4,74.4-28.7,111.7-43.1c11.9-4.6,23.8-9.4,35.9-13.7c1.8-0.6,4.6-3.1,5.9,1C259.1,282.2,257.9,285.1,255,287z"/>
		<path class="st17" d="M86.1,23.9c-1.5,3.9-4.4,6.9-7.3,9.9c-11,11.4-22.1,22.6-32.9,34C31.9,82.5,18.2,97.3,4.3,112.1
			c-1.1,1.2-2.7,2-4,2.9c0-3.3,0-6.7,0-10c4.8-5.4,9.5-10.9,14.5-16.1c10.9-11.4,22-22.6,32.9-34c9.6-10.1,19-20.3,28.5-30.5
			c0.9-1,1.9-1.9,1.9-3.4C80.9,21.5,83.5,22.6,86.1,23.9z"/>
		<path class="st16" d="M260.1,279.1c-1.8-2.4-3.8-0.5-5.4,0.1c-17.8,6.7-35.6,13.7-53.4,20.5c-31.2,12-62.5,24.1-93.7,36.1
			c-10.1,3.9-20.1,7.9-30.1,11.7c-1.8,0.7-3.5,1.2-3.5,3.5c-1.5-1-2.7-2.3-2.9-4.1c4.6-4.8,11.2-5.5,17-7.8
			c45.4-17.8,91-35.3,136.5-52.9c11-4.2,22-8.4,33-12.6c1.6-0.6,3.1-1.4,4.5,0.3C262,276,261.3,277.6,260.1,279.1z"/>
		<path class="st18" d="M263.9,220c0,2.7,0,5.4,0,8c-4.9,3.7-10.8,5-16.3,7.1c-18.7,7.3-37.4,14.6-56.2,21.7c-2.3,0.9-4.6,2-7.1,0.6
			c-1.4-3.6,1.5-6.2,1.9-9.4c0.5-1.2,0.9-2.5,1.8-3.4c23.1-8.1,45.8-17.5,68.8-26.1C259.3,217.6,262.4,215.3,263.9,220z"/>
		<path class="st19" d="M184,257c4.6,0.6,8.4-1.9,12.3-3.4c21.6-8.2,43.1-16.7,64.7-25.1c0.9-0.4,1.9-0.4,2.9-0.5c0,2.7,0,5.3,0,8
			c-27.2,10.6-54.4,21.2-81.6,31.7c-2.3,0.9-4.8,1.5-7.3,1.2c0.3-4.2,4.6-5.9,6-9.5C181.8,258.4,182.5,257.2,184,257z"/>
		<path class="st20" d="M62.9,165.5c0.8-1.9,1.8-3.5,3.2-5c10.6-10.8,21.5-21.3,31.4-32.6c7.7-8.7,16.6-16.2,23.8-25.4
			c1.5-1.9,2.9-5.6,6.8-4.2c-0.1,0.6-0.2,1.2-0.4,1.8c-0.6,3-0.1,6.1-0.3,9.1c-4.2,5.7-9.5,10.6-14.4,15.6
			c-10.5,10.8-20.4,22.2-31.3,32.7c-3.4,3.3-6.6,7-8.7,11.4C69.6,167.8,66.2,166.6,62.9,165.5z"/>
		<path class="st21" d="M73,168.9c-0.7-1.2-1-2.3,0.1-3.6c2-2.2,3.8-4.6,5.8-6.7c10.2-10.6,20.5-21.1,30.7-31.8
			c4.5-4.6,8.8-9.4,13.2-14.1c1.1-1.2,2.1-2.6,4-2.7c1.3,3.5,0.3,7.1,0.6,10.6c-1.4,4.7-5.6,7.2-8.7,10.5
			c-12.4,13.1-25,26.1-37.3,39.3c-0.5,0.5-1.1,0.7-1.7,1C77.6,170.6,75.1,170.4,73,168.9z"/>
		<path class="st22" d="M263.9,205c0,3,0,6,0,9c-2.9-2.5-5.8-1.7-9-0.4c-19.7,7.7-39.4,15.2-59.1,22.9c-2.4,0.9-4.9,2.6-7.4,0.3
			c-1.1-2.4-1-4.8-0.2-7.3c1.1-1.9,3-2.6,4.8-3.3c21.4-8.4,42.9-16.7,64.5-24.8C262.5,199.5,263,199.8,263.9,205z"/>
		<path class="st23" d="M79.8,171.5c1.6-3.1,3.9-5.7,6.4-8.2c12.1-12,23.8-24.4,35.2-37.1c1.6-1.8,3.3-3.2,5.5-4.1
			c1.4,4.4,0.2,9,0.6,13.4c0,0.9-0.1,1.7-0.8,2.3c-12.3,11.7-23.4,24.5-35.3,36.6c-0.3,0.3-0.9,0.4-1.4,0.6
			C86.6,173.8,83.2,172.6,79.8,171.5z"/>
		<path class="st24" d="M189,237c10-2.3,19.2-6.9,28.8-10.5c13.6-5.1,27.2-10.3,40.7-15.8c4-1.7,4.3,1.2,5.4,3.3c0,2,0,4,0,6
			c-1.2-1.5-2.4-2.1-4.6-1.2c-21.8,8.5-43.6,16.8-65.4,25.3c-1.9,0.8-3.8,0.9-5.8,0.9c-0.4-0.4-0.6-0.9-0.6-1.4
			C187.9,241.4,187.1,238.9,189,237z"/>
		<path class="st18" d="M68.2,301c0-3,0-6,0-9c0.6-1.6,2.1-2,3.5-2.5c16.2-6.2,32.3-12.4,48.5-18.6c2.6-1,5.4-3.1,8.4-0.6
			c1.2,2.7,1,5.5,0.3,8.2c-1,2.2-3,3-5,3.8c-16.1,6.5-32.4,12.5-48.6,18.8C73,301.9,70.5,302.9,68.2,301z"/>
		<path class="st25" d="M68.2,233c-0.1-3.7-0.8-7.5,0.7-11.1c15.4-4.6,30-11.3,45.1-16.9c3.1-1.1,6.2-2.3,9.4-3.3
			c1.7-0.5,3.5-1.1,5.1,0.4c1.2,2.1,0.8,4.3,0.8,6.5c-0.1,0.8-0.3,1.6-0.7,2.3c-5.2,3.8-11.3,5.3-17.2,7.6
			c-12.2,4.8-24.4,9.5-36.6,14.1c-1.7,0.6-3.3,1.5-5.3,1.1C69,233.6,68.6,233.4,68.2,233z"/>
		<path class="st26" d="M68.2,301c6.3,0.4,11.4-3.2,16.9-5.2c14.4-5.4,28.7-11.2,43-16.8c0.4-0.2,0.8-0.2,1.2,0c1.3,2.2,4.4,3,4.6,6
			c-7.1,4.7-15.4,6.6-23.2,9.8c-12.3,5.1-24.9,9.7-37.4,14.5c-1.8,0.7-3.6,2.1-5.2-0.2C68.2,306.3,68.2,303.6,68.2,301z"/>
		<path class="st27" d="M90,174.9c2-3.3,4.6-6,7.3-8.7c8.4-8.6,16.8-17.4,25.2-26.1c1.2-1.3,2.3-3,4.4-3c1.4,5,0.3,10.2,0.7,15.3
			c0.2,2.2-1.6,3.1-2.8,4.3c-5.8,5.9-12.1,11.4-17.2,17.9c-1.3,1.7-2.5,3.5-3.5,5.4C99.3,178.3,94.7,176.6,90,174.9z"/>
		<path class="st28" d="M263.9,205c-1-3.9-3.1-3.6-6.4-2.3c-22.8,8.9-45.7,17.6-68.5,26.4c-1.8-2-1.5-4.2-0.8-6.5
			c2.1-2.6,5.3-3.4,8.2-4.4c20.3-7.4,40.2-15.7,60.4-23.4c2-0.8,4-1.6,6.3-0.8c0.9,1.9-0.3,4.2,0.8,6.1
			C263.9,201.6,263.9,203.3,263.9,205z"/>
		<path class="st22" d="M68.2,282c0-3,0-6,0-9c8.1-0.6,15.1-4.7,22.5-7.4c10.6-3.9,21-8.1,31.6-12.1c2-0.8,4.2-2.4,6.4-0.1
			c1,2.7,1,5.4,0,8.1c-4.2,3-9.3,4.1-14.1,5.9c-12.9,5.1-25.9,10.3-39,15C73.2,283.4,70.5,285.5,68.2,282z"/>
		<path class="st21" d="M152,97.8c-3.3-1.2-6.7-2.5-10-3.7c-1.4-2.5,0.5-4.2,1.8-5.6c10.3-10.6,20.2-21.5,30.5-32.1
			c0.5-0.5,1.1-0.7,1.8-0.3c3.9,0.9,7.6,2.1,11.1,4c-6.9,6.5-12.6,14.1-19.5,20.5C162,85.8,157.1,91.9,152,97.8z"/>
		<path class="st24" d="M68.2,282c1.9,1.6,3.8,0.6,5.6-0.1c15.5-6,31.1-12,46.6-18.1c2.5-1,4.9-2.1,7.6-1.8c1.5,1.4,1.3,3.1,1.3,4.9
			c-0.1,1.2-0.3,2.3-1.3,3.1c-9.3,1.8-17.7,6.3-26.5,9.4c-11.2,3.9-22.2,8.4-33.3,12.6C68.2,288.6,68.2,285.3,68.2,282z"/>
		<path class="st29" d="M152,97.8c0.2-4.5,4.1-6.7,6.5-9.5c7.8-8.9,16.3-17.3,24.5-25.8c1.1-1.2,2.2-2.5,4.1-2.5
			c2.8,0.4,5.4,1.5,7.9,2.8c0.7,1.3-0.1,2.3-0.9,3.1C183.6,78,172.3,89.5,161,101C158,99.9,155,98.9,152,97.8z"/>
		<path class="st30" d="M176.1,56c-9.6,10.1-18.8,20.7-28.9,30.4c-2.3,2.2-4.4,4.5-5.1,7.6c-4.2-0.4-8.7-2.3-12.3,1.9
			c-0.4-3.4,2.1-5.2,4.1-7.2c10.2-10.7,20.5-21.2,30.8-31.8c1.2-1.2,2.4-2.3,2.5-4.2C170.1,53.8,173.4,54.2,176.1,56z"/>
		<path class="st31" d="M68.2,233c0.3,0,0.5,0,0.8,0c2.5,5.8,2.4,5.6,9.1,3.2c14.8-5.4,29.4-11.3,44.1-17c2-0.8,4-1.8,6.2-0.3
			c0.7,0.9,0.9,2,1,3.1c0,1.4-0.1,2.8-0.8,4c-6.2,4.4-13.6,5.9-20.5,8.7c-10.1,4.1-20.4,7.9-30.6,11.9c-2.7,1.1-5.3,2.9-8.5,1.6
			c-0.9-2,0.1-4.2-0.7-6.2C68.2,239,68.2,236,68.2,233z"/>
		<path class="st32" d="M161,101c2.9-5.9,8.1-9.8,12.3-14.6c7.1-8,15.3-15,21.8-23.7c3.1,0.7,6.1,1.7,9,3.3c0.1,1.2-0.4,2.3-1.3,3.1
			c-11.4,11.5-21.8,24-33.8,34.9C166.2,103.4,163.5,102.5,161,101z"/>
		<path class="st33" d="M68.2,262c0-2.7,0-5.4,0-8.1c0.2-0.1,0.5-0.1,0.7-0.2c0.2,0.2,0.4,0.3,0.6,0.5c0.6,4.5,2.8,4.6,6.6,3.1
			c15.1-6.1,30.4-11.8,45.6-17.7c2.2-0.9,4.5-2.6,6.9-0.4c1,2.1,0.9,4.2,0.1,6.4c-3.3,3.4-7.8,4.1-11.9,5.8
			c-13.2,5.3-26.5,10.5-39.9,15.4c-1.1,0.4-2.2,0.8-3.3,1.1c-4.5,1.2-4.8,1-5-3.5C68.5,263.6,68.6,262.8,68.2,262z"/>
		<path class="st34" d="M169,104.1c0.9-2.4,2.6-4.1,4.4-5.9c10.3-10.7,20.5-21.4,30.7-32.1c2.8,0.4,5.5,1.5,8,2.8
			c-9.8,10.3-19.5,20.7-29.4,31c-2.5,2.6-5,5.3-6.8,8.5C173.6,106.9,171.3,105.5,169,104.1z"/>
		<path class="st28" d="M68.2,262c1.8,6.3,1.8,6.2,8.7,3.5c17-6.5,34-13,51-19.5c1.2,1,1.3,2.5,1.3,3.9c-0.1,1.2-0.3,2.3-1.3,3.1
			c-16.8,6.4-33.6,12.9-50.5,19.1c-2.8,1-5.8,4.6-9.3,0.9C68.2,269.4,68.2,265.7,68.2,262z"/>
		<path class="st35" d="M71,214.9c0.8-3.8,3.7-5.9,6.9-7.1c16.6-6.2,33.2-12.5,50.1-17.8c1.2,1.1,1.2,2.4,1.2,3.9
			c-0.1,0.8-0.4,1.6-0.9,2.3c-9.5,5.1-19.8,8.4-29.8,12.3c-6.9,2.7-13.8,5.8-21,7.7C75.3,216.9,72.4,218.9,71,214.9z"/>
		<path class="st36" d="M104,179.9c-0.5-1-1.2-2-0.2-3.2c6.7-7.9,13.9-15.4,21.6-22.4c0.3-0.3,0.9-0.2,1.4-0.4
			c1.1,5,0.8,10.1,0.2,15.1C125.6,180,115.7,184.7,104,179.9z"/>
		<path class="st37" d="M71,214.9c1.3,1.6,3.1,1.2,4.6,0.7c10.2-3.8,20.4-7.6,30.7-11.4c7.2-2.7,14.4-5.5,21.6-8.2
			c1.6,1.3,1.4,3,1.1,4.7c-0.2,0.6-0.6,1-1,1.3c-12.5,2.9-24,8.6-35.9,13c-6.2,2.3-12.4,4.7-18.6,7c-1.4,0.5-3,1.9-4.4-0.1
			C68.6,219.2,69.5,217,71,214.9z"/>
		<path class="st38" d="M128.2,194c-0.1-1.3-0.1-2.6-0.2-3.9c14.8-7.1,30.3-12.4,45.3-18.9c4.9-2.1,9.8-4.1,14.7-6.1
			c1.6,1.6,1.4,3.6,0.8,5.5c-0.6,1.5-1.9,2.3-3.3,2.8c-18.7,7-37,14.8-55.9,21.2C129,194.6,128.6,194.4,128.2,194z"/>
		<path class="st39" d="M188,171c0-2,0-4,0-6c0.1-11,0.1-22,0.2-33c1.8,4.8,0.6,9.8,0.8,14.7c0.2,5.8,0.1,11.6,0.1,17.3
			c1.2,1.5,1.3,3.3,1.3,5.1c0.2,2.4,0,4.7,0,7.1c0.1,3.6,0.1,7.1,0,10.7c0.1,2.6,0,5.3,0,7.9c0.1,2.3,0,4.6-0.1,6.9
			c0,1.7,0.1,3.5-0.9,5.1c-0.4,0.5-0.9,0.7-1.6,0.5c-0.4-0.4-0.7-0.9-0.9-1.5c-0.6-2.3-0.4-4.6-0.4-6.9c-0.2-2.9,0-5.8-0.1-8.7
			c-0.1-2.9,0-5.8,0.1-8.7c-0.1-1.5-0.1-2.9,0-4.4C186.4,174.8,186.8,172.8,188,171z"/>
		<path class="st11" d="M127.1,169.1c-0.1-5-0.2-10.1-0.2-15.1c0-5.7,0-11.3,0-17c0-5,0-10,0-15c0-4,0-8,0-12
			c0.6-3.3-0.7-6.7,0.9-9.9c0,21.6,0,43.1,0,64.6C127.7,166.2,127.9,167.8,127.1,169.1z"/>
		<path class="st40" d="M262,121.1c0.3-1.8,0.7-3.6,1.9-5c0,9,0,18,0,27c-0.6,0.3-1,0.2-1.4-0.3c-0.4-0.7-0.7-1.5-0.8-2.4
			c-0.2-2.5-0.1-5-0.1-7.5C260.9,128.9,262.4,125,262,121.1z"/>
		<path class="st41" d="M263,143c0.3,0,0.6,0,0.9,0c0,6.7,0,13.3,0,20c-0.6,0.3-1.1,0.1-1.4-0.4c-0.8-1.3-0.8-2.7-0.8-4.2
			c-0.2-3.5,0-6.9-0.1-10.4C261.6,146.2,261.5,144.4,263,143z"/>
		<path class="st42" d="M263,163c0.3,0,0.6,0,0.9,0c0,6.3,0,12.7,0,19c-0.5,0.3-1,0.2-1.4-0.3c-0.3-0.5-0.5-1-0.6-1.5
			c-0.4-2.1-0.2-4.3-0.3-6.5c0-2.2,0-4.5,0-6.7C261.6,165.5,261.8,164.1,263,163z"/>
		<path class="st43" d="M263,182c0.3,0,0.6,0,0.9,0c0,6,0,12,0,18c-1.7-1.8-0.6-4-0.9-6c-1.9-2-1.3-4.5-1.4-6.9
			C261.6,185.3,261.5,183.4,263,182z"/>
		<path class="st44" d="M69,254c-0.3,0-0.5,0-0.8,0c0-4,0-8,0-11.9c1.5,1.8,0.5,4,0.8,5.9C70.5,250,70.8,252,69,254z"/>
		<path class="st45" d="M78.9,354c3.1,0,6.2,0,9.2-0.1C85.1,355.5,82,355.5,78.9,354z"/>
		<path class="st46" d="M263,133c0,2.7,0,5.3,0,8c-1.3,1.6-3.2,2.3-5.1,3c-21.2,8.2-42.4,16.4-63.6,24.6c-1.6,0.6-3.4,1.7-5.2,0.3
			c0-1.7,0-3.4,0-5.1c5.9-0.9,10.8-4.2,16-6.6c13.4-6.1,26.6-12.8,39.9-19.3c4.2-1.2,8.3-3,12.4-4.6C259.2,132.8,261,131.6,263,133z
			"/>
		<path class="st47" d="M263,133c-6.2,1-11.3,5.8-18,5c5.1-4,11.6-6.3,15-12.5c0.8-1.4,1.8-2.8,2-4.5C264,124.9,262.5,129.1,263,133
			z"/>
		<path class="st48" d="M134,285c-1.8-1.9-4.8-2.8-5-6c-0.1-2.4,1.9-2.4,3.3-2.9c14.5-5.6,29-11.2,43.5-16.8c2-0.8,4.4-2.2,6.1,0.7
			c-1.7,3.5-4.8,5.9-7,9c-10.3,8.6-23.5,11-35.6,15.6C137.8,285.2,135.8,284.9,134,285z"/>
		<path class="st49" d="M128,253c0-1,0.1-2,0.1-3c0.5-0.1,1,0,1.3,0.5c1,3.4,3.1,3,5.8,1.9c15.3-5.9,30.5-11.9,45.8-17.7
			c2.3-0.9,5-3.4,7.4,0.1c-0.2,3.1,0.5,6.2-0.5,9.2c0,0.3,0,0.7,0.1,1c-0.1,1.1,0.1,2.3-1.1,3c-17.3,6.6-34.6,13.4-51.9,19.9
			c-2.4,0.9-5.1,2.3-7-0.9c0-1.7-0.1-3.4-0.1-5C128,259,128,256,128,253z"/>
		<path class="st50" d="M128.1,267c2.1,1.3,4,0.8,6.1-0.1c15.9-6.2,31.8-12.4,47.8-18.4c1.5-0.6,3.1-2.3,5-0.5c-0.1,3.3-1.7,6.1-3,9
			c-0.7,1-1.4,2-2.1,3c-1.2-0.7-2.4-0.8-3.7-0.2c-16.4,6.4-32.8,12.8-49.2,19.2c-0.3,0-0.6,0-0.9,0c0-3-0.1-6-0.1-8.9
			C128,269,128.1,268,128.1,267z"/>
		<path class="st51" d="M188,244c0-3.3,0-6.7,0-10c-1.5-1.7-1.4-3.8-1.4-5.9c-0.1-2.1,0.1-4.1,0-6.1c-0.1-2.4,0-4.7,0-7.1
			c0.1-2.7-0.6-5.5,1.4-7.8c0.3,0,0.6,0,0.9-0.1c0.8,0.6,1.1,1.4,1.2,2.2c0.3,2,0.2,4,0.2,6.1c0.1,2.4,0.3,4.7-1.4,6.7
			c0,2.3,0,4.7,0,7c0,2.7,0,5.3,0,8C188.6,239.3,189.9,241.9,188,244z"/>
		<path class="st52" d="M188,199c0,2.3,0,4.7,0,7c-1.2,1.5-2.7,2.4-4.5,3c-16.4,6.1-32.6,12.7-49,18.8c-1.8,0.7-3.7,1.7-5.7,0.4
			c-1.2-1.9,0.5-4.2-0.7-6.1c-0.1-1-0.1-2-0.2-3c-1.8-2.7-1.8-5.3,0-8c0.1-0.7,0.2-1.3,0.3-2c0.5-0.3,1-0.2,1.3,0.3
			c0.6,0.9,0.7,1.9,0.8,3c0.2,6.6,0.3,6.6,6.5,4.2c14.9-5.8,29.8-11.4,44.6-17.2C183.5,198.4,185.7,197.1,188,199z"/>
		<path class="st53" d="M127.9,211c0,2.7,0,5.3,0,8c-8.9,2.2-17.1,6.2-25.6,9.4c-9.4,3.6-18.8,7.3-28.2,11c-3.4,1.3-5.8,1.4-5.1-3.4
			c0.2-1,0-2,0-3c7.6-1.8,14.6-5.2,21.8-7.9C103.2,220.4,115.5,215.7,127.9,211z"/>
		<path class="st54" d="M129,209c-0.3,0-0.6,0-0.9,0c-0.1-2.3-0.2-4.7-0.3-7c0.1-0.3,0.2-0.7,0.3-1c0.6-0.3,1-0.2,1.4,0.4
			c0.4,0.7,0.6,1.5,0.7,2.3C130.3,205.5,130.6,207.5,129,209z"/>
		<path class="st33" d="M189,222c0-2.3,0-4.7,0-7c1.3-1.6,3.1-2.5,4.9-3.2c20.8-8,41.6-16,62.4-24c2-0.8,4.2-2.3,6.6-0.7
			c0,2.3,0,4.7,0,7c-14.6,5.6-29.2,11.4-43.9,16.9C209.1,214.7,199.1,218.3,189,222z"/>
		<path class="st55" d="M69,254c0-2,0-4,0-6c15.2-4.9,29.9-11.4,44.9-17c4.6-1.7,9.3-3.4,14-5c0.9,2.1,1.8,4.2,0.8,6.6
			c-1.9,2.4-5,2.4-7.6,3.4c-15,5.9-30,11.7-45,17.4C73.8,254.2,71.5,255.8,69,254L69,254z"/>
		<path class="st56" d="M127.9,233c0-2.3,0-4.7,0-7c0.1-1.3,0.1-2.6,0.2-4c1.6,1.8,0.6,4,0.9,6c1.9,2.7,1.8,5.6,0.5,8.5
			c-0.4,0.5-0.9,0.7-1.6,0.6C126.8,235.7,126.9,234.3,127.9,233z"/>
		<path class="st44" d="M127.9,233c0.1,1.3,0.1,2.7,0.2,4c0.5,0.7,0.4,1.4-0.2,2c-16.7,6.3-33.3,12.7-50,19
			c-0.6,0.2-1.2,0.6-1.8,0.8c-7.1,2.7-7.2,2.7-7.2-4.8c8.7-1.8,16.6-5.8,24.8-8.9c9.6-3.6,19.2-7.4,28.8-11.1
			C124.3,233.3,126.1,232.8,127.9,233z"/>
		<path class="st57" d="M127.9,239c0.1-0.7,0.1-1.3,0.2-2c0.3,0,0.6,0,0.9,0c0.2,0.2,0.4,0.4,0.6,0.6c1,2,0.7,4.2,0.8,6.3
			c-0.1,1.9,0.1,3.8-0.8,5.5c-0.2,0.2-0.4,0.4-0.6,0.6c-0.3,0-0.6,0-0.9,0c-0.1-1.3-0.1-2.7-0.1-4
			C127.9,243.6,127.9,241.3,127.9,239z"/>
		<path class="st58" d="M129,201c-0.3,0-0.6,0-0.9,0c-0.1-1.7-0.2-3.3-0.3-5c0.1-0.7,0.2-1.4,0.3-2c0.3,0,0.6,0,0.8,0
			c1.4,1.4,1.3,3.1,1.2,4.8C130,199.7,129.7,200.4,129,201z"/>
		<path class="st59" d="M129,199c0-1.7,0-3.3,0-5c16.4-6.4,32.9-12.8,49.3-19.2c3.2-1.3,6.4-2.5,9.7-3.8c0,2,0,4,0,6
			c-1.5,1.6-3.6,2.3-5.6,3.1c-15.9,6.3-31.7,12.5-47.7,18.5C132.8,199.2,131,200.4,129,199z"/>
		<path class="st25" d="M263,148c0,3.7,0,7.3,0,11c-1.2,1.5-2.9,2.2-4.6,2.8c-21.4,8.1-42.7,16.7-64.2,24.6
			c-1.6,0.6-3.3,1.9-5.1,0.5c0-3.7,0-7.3,0-11c4.4-3.8,10.1-4.8,15.3-6.9c16.8-6.6,33.6-13.2,50.6-19.5C257.5,148.7,260,147,263,148
			z"/>
		<path class="st60" d="M189.1,187c22.6-8.6,45.2-17.3,67.8-25.9c2-0.8,4.1-1.4,6.1-2.1c0,1.3,0,2.7,0,4c0,1.3,0,2.7,0,4
			c-2,2.5-5.2,2.9-7.9,3.9c-19.1,7.2-37.9,14.9-57,22c-2.9,1.1-5.7,2.7-9,2C189.1,192.3,189.1,189.7,189.1,187z"/>
		<path class="st58" d="M129,209c0-2,0-4,0-6c3.8-2.9,8.4-3.9,12.6-5.6c13.6-5.3,27.1-10.6,40.7-15.7c1.8-0.7,3.5-2.1,5.6-0.7
			c0,3,0,6,0,9c-1.1,2.2-3.3,2.8-5.2,3.5c-15.2,5.8-30.5,11.7-45.7,17.6c-2.5,1-5.1,2.8-8,0.9C129,211,129,210,129,209z"/>
		<path class="st31" d="M189.1,195c10.1-3.9,20.1-7.8,30.2-11.6c14.6-5.5,28.9-11.8,43.8-16.4c0,2.3,0,4.7,0,7
			c-0.8,1.7-2.5,2.1-4,2.7c-21.3,8.2-42.6,16.4-63.8,24.6c-1.9,0.8-3.9,2.2-6.1,0.7C189,199.7,189,197.3,189.1,195z"/>
		<path class="st61" d="M263,148c-24.6,9.3-49.3,18.6-73.9,28c0-2.3,0-4.7,0-7c18.3-7,36.5-14,54.8-20.9c6.3-2.4,12.7-4.7,19.1-7.1
			c0,0.7,0,1.3,0,2C263,144.7,263,146.4,263,148z"/>
		<path class="st62" d="M129,237c0-3,0-6,0-9c10.3-2.7,19.8-7.3,29.8-10.9c9.8-3.6,19.5-7.4,29.2-11.1c0,0.3,0,0.7,0.1,1
			c0,2.7,0,5.3,0,8c-6.8,4.6-14.9,6.4-22.3,9.4c-10.1,4.1-20.3,8-30.6,11.9C133.2,237.1,131.2,238.5,129,237L129,237z"/>
		<path class="st55" d="M189,202c18.3-7,36.6-14,54.8-20.9c6.3-2.4,12.7-4.7,19.1-7.1c0,2.3,0,4.7,0,7c-1.8,1.9-4.4,2.3-6.6,3.2
			c-20.6,8.3-41.4,16-62.1,24.1c-1.7,0.6-3.3,1.6-5.2,0.7c0-0.7-0.1-1.3-0.1-2C189,205.3,189,203.7,189,202z"/>
		<path class="st54" d="M129,212c9.3-1.5,17.4-6.3,26.1-9.3c11.1-3.8,21.9-8.4,32.8-12.7c0,3,0,6,0,9c-8.1,1.1-15.2,5.3-22.8,8
			c-10.7,3.8-21.3,8.1-31.9,12.3c-3,1.2-4.4,0.5-4.3-2.9C129.1,215,129,213.5,129,212z"/>
		<path class="st63" d="M188,181c-17.3,6.6-34.6,13.3-51.8,20c-2.3,0.9-4.5,2-7.1,2c0-0.7,0-1.3,0-2c0-0.7,0-1.3,0-2
			c18.5-6.2,36.5-13.8,54.7-20.9c1.4-0.5,2.7-1.3,4.3-1.1C187.9,178.3,187.9,179.7,188,181z"/>
		<path class="st64" d="M189.1,209c22.9-8.9,45.7-17.9,68.6-26.7c1.7-0.6,3.5-0.8,5.3-1.2c0,0.3,0,0.7,0,1c0,1.7,0,3.3,0,5
			c-15.3,4.9-30.1,11.4-45.1,17.1c-9.6,3.6-19.2,7.3-28.8,10.9C189,213,189.1,211,189.1,209z"/>
		<path class="st57" d="M188,228c0,2,0,4,0,6c-10,2.3-19.2,7-28.8,10.5c-8.2,3-16.4,6.3-24.5,9.5c-5.6,2.1-5.6,2.1-5.6-4l0,0
			c0.9-1.5,1.9-2.6,3.6-3.2c16.2-6,32.1-12.7,48.3-18.6C183.2,227.3,185.6,226.1,188,228z"/>
		<path class="st56" d="M129,237c14.1-5.4,28.1-10.8,42.2-16c5.6-2,10.9-4.9,16.8-6c0,2.3,0,4.7,0,7c-0.9,1.7-2.4,2.6-4.2,3.3
			c-16.3,6.1-32.4,12.7-48.7,18.7c-2,0.7-4,1.8-6.1,0C129,241.6,129,239.3,129,237z"/>
		<path class="st65" d="M129,244c3.2,0.6,5.8-1.3,8.5-2.4c16.9-6.4,33.6-13.1,50.5-19.6c0,2,0,4,0,6c-3.3-0.3-6.2,1.1-9.1,2.2
			c-16,6-31.9,12.2-47.8,18.4c-0.8,0.3-1.4,0.9-2.1,1.4C129,248,129,246,129,244z"/>
	</g>
	<g class="st66">
		<path d="M420.8,162.7h-9.2v-53.2c0-4.2,0.3-9.3,0.8-15.4h-0.2c-0.9,3.6-1.7,6.1-2.4,7.7l-27.1,60.9h-4.5l-27-60.5
			c-0.8-1.8-1.6-4.5-2.4-8.1h-0.2c0.3,3.2,0.4,8.3,0.4,15.5v53.1h-9V83.4h12.3l24.3,55.3c1.9,4.2,3.1,7.4,3.6,9.5h0.3
			c1.6-4.3,2.9-7.6,3.8-9.7l24.8-55.1h11.6V162.7z"/>
		<path d="M445,91.7c-1.6,0-3-0.6-4.1-1.7c-1.1-1.1-1.7-2.5-1.7-4.2c0-1.7,0.6-3.1,1.7-4.2c1.1-1.1,2.5-1.7,4.1-1.7
			c1.7,0,3.1,0.6,4.2,1.7s1.7,2.5,1.7,4.2c0,1.6-0.6,3-1.7,4.1C448.1,91.1,446.7,91.7,445,91.7z M449.5,162.7h-9.1v-56.6h9.1V162.7z
			"/>
		<path d="M506.4,160.1c-4.4,2.6-9.5,3.9-15.5,3.9c-8.1,0-14.6-2.6-19.5-7.9c-5-5.3-7.4-12.1-7.4-20.4c0-9.3,2.7-16.8,8-22.5
			c5.3-5.7,12.5-8.5,21.4-8.5c5,0,9.4,0.9,13.2,2.8v9.3c-4.2-2.9-8.7-4.4-13.5-4.4c-5.8,0-10.5,2.1-14.2,6.2
			c-3.7,4.1-5.6,9.6-5.6,16.3c0,6.6,1.7,11.9,5.2,15.7c3.5,3.8,8.2,5.8,14,5.8c4.9,0,9.6-1.6,13.9-4.9V160.1z"/>
		<path d="M549.7,115.2c-1.6-1.2-3.9-1.8-6.9-1.8c-3.9,0-7.1,1.8-9.7,5.5c-2.6,3.6-3.9,8.6-3.9,14.9v28.9h-9.1v-56.6h9.1v11.7h0.2
			c1.3-4,3.3-7.1,5.9-9.3c2.7-2.2,5.6-3.3,8.9-3.3c2.4,0,4.2,0.3,5.4,0.8V115.2z"/>
		<path d="M581.7,164c-8.4,0-15.1-2.6-20-7.9c-5-5.3-7.5-12.3-7.5-21c0-9.5,2.6-16.9,7.8-22.3c5.2-5.3,12.2-8,21.1-8
			c8.4,0,15,2.6,19.8,7.8c4.7,5.2,7.1,12.4,7.1,21.6c0,9-2.6,16.3-7.7,21.7S590.3,164,581.7,164z M582.3,112.4
			c-5.8,0-10.4,2-13.8,5.9c-3.4,4-5.1,9.4-5.1,16.4c0,6.7,1.7,12,5.1,15.9c3.4,3.9,8,5.8,13.8,5.8c5.9,0,10.4-1.9,13.5-5.7
			c3.2-3.8,4.7-9.2,4.7-16.2c0-7.1-1.6-12.5-4.7-16.4C592.7,114.3,588.2,112.4,582.3,112.4z"/>
		<path d="M620.9,160.6v-9.7c4.9,3.6,10.4,5.5,16.3,5.5c8,0,11.9-2.7,11.9-8c0-1.5-0.3-2.8-1-3.8c-0.7-1.1-1.6-2-2.8-2.8
			c-1.2-0.8-2.5-1.5-4.1-2.2c-1.6-0.6-3.3-1.3-5.1-2c-2.5-1-4.7-2-6.6-3c-1.9-1-3.5-2.2-4.8-3.4c-1.3-1.3-2.2-2.7-2.9-4.3
			c-0.6-1.6-1-3.5-1-5.7c0-2.7,0.6-5,1.8-7.1c1.2-2,2.8-3.8,4.9-5.1s4.3-2.4,6.9-3.1c2.6-0.7,5.3-1.1,8-1.1c4.9,0,9.3,0.8,13.2,2.5
			v9.2c-4.2-2.7-9-4.1-14.4-4.1c-1.7,0-3.2,0.2-4.6,0.6c-1.4,0.4-2.5,0.9-3.5,1.6c-1,0.7-1.7,1.5-2.3,2.5c-0.5,1-0.8,2.1-0.8,3.2
			c0,1.5,0.3,2.7,0.8,3.7c0.5,1,1.3,1.9,2.4,2.7c1,0.8,2.3,1.5,3.8,2.1c1.5,0.6,3.2,1.3,5,2c2.5,1,4.8,1.9,6.7,3
			c2,1,3.7,2.2,5.1,3.4c1.4,1.3,2.5,2.7,3.2,4.4c0.8,1.7,1.1,3.6,1.1,5.9c0,2.8-0.6,5.2-1.9,7.3c-1.2,2.1-2.9,3.8-4.9,5.1
			c-2.1,1.4-4.4,2.4-7.1,3c-2.7,0.7-5.5,1-8.5,1C630.3,164,625.2,162.9,620.9,160.6z"/>
		<path d="M696.1,164c-8.4,0-15.1-2.6-20-7.9c-5-5.3-7.5-12.3-7.5-21c0-9.5,2.6-16.9,7.8-22.3c5.2-5.3,12.2-8,21.1-8
			c8.4,0,15,2.6,19.8,7.8c4.7,5.2,7.1,12.4,7.1,21.6c0,9-2.6,16.3-7.7,21.7C711.5,161.3,704.7,164,696.1,164z M696.8,112.4
			c-5.8,0-10.4,2-13.8,5.9c-3.4,4-5.1,9.4-5.1,16.4c0,6.7,1.7,12,5.1,15.9c3.4,3.9,8,5.8,13.8,5.8c5.9,0,10.4-1.9,13.5-5.7
			c3.2-3.8,4.7-9.2,4.7-16.2c0-7.1-1.6-12.5-4.7-16.4C707.1,114.3,702.6,112.4,696.8,112.4z"/>
		<path d="M764.7,86.8c-1.8-1-3.8-1.5-6-1.5c-6.3,0-9.5,4-9.5,12v8.7h13.3v7.7h-13.3v48.9h-9v-48.9h-9.7v-7.7h9.7v-9.2
			c0-5.9,1.7-10.6,5.1-14.1c3.4-3.4,7.7-5.2,12.8-5.2c2.8,0,5,0.3,6.6,1V86.8z"/>
		<path d="M800.5,162.1c-2.1,1.2-5,1.8-8.5,1.8c-9.9,0-14.9-5.5-14.9-16.6v-33.5h-9.7v-7.7h9.7V92.2l9.1-2.9v16.8h14.3v7.7h-14.3
			v31.9c0,3.8,0.6,6.5,1.9,8.1c1.3,1.6,3.4,2.4,6.4,2.4c2.3,0,4.3-0.6,5.9-1.9V162.1z"/>
	</g>
	<g class="st66">
		<path d="M339.9,283.7v-79.3h21.9c27.9,0,41.9,12.9,41.9,38.7c0,12.2-3.9,22.1-11.6,29.5c-7.8,7.4-18.1,11.1-31.2,11.1H339.9z
			 M349.2,212.8v62.5H361c10.4,0,18.5-2.8,24.3-8.4c5.8-5.6,8.7-13.5,8.7-23.7c0-20.3-10.8-30.5-32.4-30.5H349.2z"/>
		<path d="M463.2,227.1l-26,65.7c-4.6,11.7-11.2,17.6-19.6,17.6c-2.4,0-4.3-0.2-5.9-0.7v-8.1c2,0.7,3.7,1,5.4,1
			c4.6,0,8-2.7,10.3-8.2l4.5-10.7l-22.1-56.5h10.1l15.3,43.6c0.2,0.6,0.6,2,1.2,4.3h0.3c0.2-0.9,0.6-2.3,1.1-4.2l16.1-43.7H463.2z"
			/>
		<path d="M519.9,283.7h-9.1v-32.3c0-12-4.4-18-13.2-18c-4.5,0-8.3,1.7-11.3,5.1c-3,3.4-4.5,7.7-4.5,12.9v32.3h-9.1v-56.6h9.1v9.4
			h0.2c4.3-7.2,10.5-10.7,18.6-10.7c6.2,0,10.9,2,14.2,6s4.9,9.8,4.9,17.3V283.7z"/>
		<path d="M577.5,283.7h-9.1v-8.8h-0.2c-3.9,6.8-9.8,10.2-17.4,10.2c-5.6,0-10.1-1.5-13.2-4.5s-4.8-6.9-4.8-11.9
			c0-10.6,6.2-16.7,18.7-18.5l17-2.4c0-9.6-3.9-14.4-11.7-14.4c-6.8,0-13,2.3-18.5,7V231c5.6-3.5,12-5.3,19.2-5.3
			c13.3,0,20,7,20,21.1V283.7z M568.5,255l-13.7,1.9c-4.2,0.6-7.4,1.6-9.5,3.1c-2.1,1.5-3.2,4.1-3.2,7.9c0,2.8,1,5,3,6.8
			c2,1.8,4.6,2.6,7.9,2.6c4.5,0,8.2-1.6,11.1-4.7s4.4-7.1,4.4-12V255z"/>
		<path d="M675,283.7H666v-32.5c0-6.3-1-10.8-2.9-13.6s-5.2-4.2-9.8-4.2c-3.9,0-7.2,1.8-9.9,5.3c-2.7,3.5-4.1,7.8-4.1,12.7v32.3
			h-9.1v-33.6c0-11.1-4.3-16.7-12.9-16.7c-4,0-7.3,1.7-9.8,5c-2.6,3.3-3.9,7.7-3.9,13v32.3h-9.1v-56.6h9.1v9h0.2
			c4-6.9,9.9-10.3,17.6-10.3c3.9,0,7.2,1.1,10.1,3.2c2.9,2.2,4.8,5,5.9,8.5c4.2-7.8,10.5-11.7,18.8-11.7c12.5,0,18.7,7.7,18.7,23.1
			V283.7z"/>
		<path d="M696.8,212.7c-1.6,0-3-0.6-4.1-1.7c-1.1-1.1-1.7-2.5-1.7-4.2c0-1.7,0.6-3.1,1.7-4.2c1.1-1.1,2.5-1.7,4.1-1.7
			c1.7,0,3.1,0.6,4.2,1.7c1.2,1.1,1.7,2.5,1.7,4.2c0,1.6-0.6,3-1.7,4.1C699.9,212.1,698.5,212.7,696.8,212.7z M701.2,283.7h-9.1
			v-56.6h9.1V283.7z"/>
		<path d="M758.2,281.1c-4.4,2.6-9.5,3.9-15.5,3.9c-8.1,0-14.6-2.6-19.5-7.9c-5-5.3-7.4-12.1-7.4-20.4c0-9.3,2.7-16.8,8-22.5
			c5.3-5.7,12.5-8.5,21.4-8.5c5,0,9.4,0.9,13.2,2.8v9.3c-4.2-2.9-8.7-4.4-13.5-4.4c-5.8,0-10.5,2.1-14.2,6.2
			c-3.7,4.1-5.6,9.6-5.6,16.3c0,6.6,1.7,11.9,5.2,15.7c3.5,3.8,8.2,5.8,14,5.8c4.9,0,9.6-1.6,13.9-4.9V281.1z"/>
		<path d="M768.5,281.6v-9.7c4.9,3.6,10.4,5.5,16.3,5.5c8,0,11.9-2.7,11.9-8c0-1.5-0.3-2.8-1-3.8c-0.7-1.1-1.6-2-2.8-2.8
			c-1.2-0.8-2.5-1.5-4.1-2.2c-1.6-0.6-3.3-1.3-5.1-2c-2.5-1-4.7-2-6.6-3c-1.9-1-3.5-2.2-4.8-3.4c-1.3-1.3-2.2-2.7-2.9-4.3
			c-0.6-1.6-1-3.5-1-5.7c0-2.7,0.6-5,1.8-7.1s2.8-3.8,4.9-5.1s4.3-2.4,6.9-3.1c2.6-0.7,5.3-1.1,8-1.1c4.9,0,9.3,0.8,13.2,2.5v9.2
			c-4.2-2.7-9-4.1-14.4-4.1c-1.7,0-3.2,0.2-4.6,0.6c-1.4,0.4-2.5,0.9-3.5,1.6c-1,0.7-1.7,1.5-2.3,2.5c-0.5,1-0.8,2.1-0.8,3.2
			c0,1.5,0.3,2.7,0.8,3.7c0.5,1,1.3,1.9,2.3,2.7c1,0.8,2.3,1.5,3.8,2.1c1.5,0.6,3.2,1.3,5,2c2.5,1,4.8,1.9,6.7,3
			c2,1,3.7,2.2,5.1,3.4c1.4,1.3,2.5,2.7,3.2,4.4c0.8,1.7,1.1,3.6,1.1,5.9c0,2.8-0.6,5.2-1.9,7.3c-1.2,2.1-2.9,3.8-4.9,5.1
			c-2.1,1.4-4.4,2.4-7.1,3c-2.7,0.7-5.5,1-8.5,1C777.8,285,772.8,283.9,768.5,281.6z"/>
		<path d="M849.1,280.8V271c5.4,4.3,11.5,6.4,18.4,6.4c5.5,0,9.9-1.4,13.2-4.1c3.3-2.8,4.9-6.5,4.9-11.2c0-10.4-7.4-15.5-22.1-15.5
			H857v-7.7h6.2c13.1,0,19.6-4.9,19.6-14.6c0-9-5-13.5-15-13.5c-5.6,0-10.8,1.9-15.8,5.7v-8.8c5.1-3,11.1-4.5,18-4.5
			c6.7,0,12,1.8,16,5.3c4,3.5,6,8.1,6,13.6c0,10.4-5.3,17.1-15.9,20.1v0.2c5.7,0.6,10.3,2.6,13.6,6c3.4,3.4,5.1,7.8,5.1,12.9
			c0,7.1-2.6,12.9-7.7,17.2c-5.1,4.4-11.8,6.6-20.2,6.6C859.5,285,853.5,283.6,849.1,280.8z"/>
		<path d="M954.5,205.3v8.6c-4.1-2.1-8.4-3.2-12.9-3.2c-7,0-12.7,3.1-16.9,9.4c-4.2,6.3-6.3,14.7-6.3,25.2h0.2
			c3.7-7.5,9.7-11.2,18.1-11.2c6.9,0,12.4,2.2,16.5,6.7c4.1,4.4,6.1,10.4,6.1,17.8c0,7.8-2.3,14.1-7,19c-4.7,4.9-10.6,7.4-17.9,7.4
			c-8,0-14.2-3.2-18.7-9.5c-4.5-6.3-6.8-15.2-6.8-26.7c0-13.9,3-25,8.9-33.3c5.9-8.3,13.8-12.4,23.5-12.4
			C946.9,203.1,951.3,203.8,954.5,205.3z M934.7,241.8c-4.7,0-8.5,1.6-11.4,4.8c-2.9,3.2-4.4,6.9-4.4,11.2c0,5.4,1.4,10,4.3,13.9
			c2.9,3.8,6.7,5.8,11.5,5.8c4.6,0,8.3-1.7,11.1-5c2.8-3.3,4.2-7.6,4.2-12.7c0-5.6-1.3-10-4-13.2
			C943.4,243.4,939.6,241.8,934.7,241.8z"/>
		<path d="M973,281.8v-9.6c5.4,3.5,10.9,5.3,16.5,5.3c5.6,0,10.1-1.6,13.5-4.8c3.4-3.2,5.1-7.4,5.1-12.6c0-5.2-1.8-9.3-5.3-12.2
			c-3.5-2.9-8.5-4.4-15-4.4c-2.2,0-6.4,0.2-12.4,0.7v-39.8h38.4v8.2H984v23.2c2.4-0.1,4.7-0.2,6.7-0.2c8.5,0,15,2.1,19.7,6.4
			c4.6,4.3,7,10.1,7,17.5c0,7.7-2.5,13.8-7.5,18.5c-5,4.7-11.8,7-20.5,7C982.1,285,976.6,283.9,973,281.8z"/>
	</g>
</g>
</svg>
