<?xml version="1.0" encoding="utf-8"?>
<!-- Generator: Adobe Illustrator 25.4.1, SVG Export Plug-In . SVG Version: 6.00 Build 0)  -->
<svg version="1.1" id="Layer_1" xmlns="http://www.w3.org/2000/svg" xmlns:xlink="http://www.w3.org/1999/xlink" x="0px" y="0px"
	 viewBox="0 0 677.9 402.6" style="enable-background:new 0 0 677.9 402.6;" xml:space="preserve">
<style type="text/css">
	.st0{fill:none;stroke:#F8B135;stroke-width:7.83;stroke-miterlimit:10;}
	.st1{fill:none;stroke:#EE7433;stroke-width:7.83;stroke-miterlimit:10;}
	.st2{fill:none;stroke:#00ADA8;stroke-width:9.79;stroke-miterlimit:10;}
	.st3{fill:none;stroke:#00ADA8;stroke-width:9.79;stroke-linecap:round;stroke-miterlimit:10;}
	.st4{fill:none;stroke:#EE7433;stroke-width:9.79;stroke-miterlimit:10;}
	.st5{enable-background:new    ;}
	.st6{fill:#1D1D1B;}
</style>
<g id="Layer_2_00000005259527667769110200000004297839169076764813_">
	<g id="Layer_1-2">
		<path class="st0" d="M307.8,132.6V91.5c0-17.6,14.3-31.9,31.9-31.9c14.7,0,27.6,10.1,31,24.4c0.6,2.5,0.9,5,0.9,7.5v41.1"/>
		<circle class="st1" cx="340.6" cy="22.4" r="18.4"/>
		<path class="st0" d="M371.5,132.6v-17.9c0-2.5,0.3-5.1,0.9-7.5c3.4-14,16.4-24.4,31.5-24.4c17.6,0,31.9,14.3,31.9,31.9v17.9"/>
		<circle class="st1" cx="403.9" cy="44.4" r="18.4"/>
		<path class="st0" d="M243.6,132.6v-17.9c0-17.6,14.3-31.9,31.9-31.9c15,0,28,9.4,31.4,23.4c0.6,2.5,0.9,5,0.9,7.5v17.9"/>
		<circle class="st1" cx="275.5" cy="44.4" r="18.4"/>
		<path class="st2" d="M415.9,223.2c-51.8,42.5-128.3,34.9-170.7-16.9c-17.2-20.9-26.8-47-27.5-74.1h88.6c17.1,0,24.6,4.6,33.4,9.8"
			/>
		<line class="st3" x1="306" y1="222.2" x2="335.2" y2="250.6"/>
		<line class="st3" x1="335.1" y1="216.7" x2="367.5" y2="247.3"/>
		<line class="st3" x1="363" y1="210.1" x2="393.6" y2="237.7"/>
		<path class="st4" d="M460.3,132.3c-0.5,21.5-6.7,42.4-18,60.7c-6.8,11-15.3,20.9-25.2,29.3c0,0-41.5-41.8-61.4-41.8
			s-29.1,16.2-49.4,16.2c-15.9,0-27.2-14.9-27.2-14.9l61.3-39.2c11-7,14.4-10.2,32-10.2H460.3z"/>
		<g class="st5">
			<path class="st6" d="M4,355.2l8-0.7c0.4,3.2,1.3,5.9,2.6,7.9c1.4,2.1,3.5,3.7,6.4,5c2.9,1.3,6.2,1.9,9.8,1.9
				c3.2,0,6.1-0.5,8.5-1.4c2.5-1,4.3-2.3,5.5-4c1.2-1.7,1.8-3.5,1.8-5.5c0-2-0.6-3.8-1.7-5.3c-1.2-1.5-3.1-2.8-5.7-3.8
				c-1.7-0.7-5.5-1.7-11.4-3.1c-5.9-1.4-10-2.8-12.3-4c-3-1.6-5.3-3.6-6.8-6c-1.5-2.4-2.2-5.1-2.2-8c0-3.3,0.9-6.3,2.7-9.1
				s4.5-5,8-6.4c3.5-1.5,7.4-2.2,11.7-2.2c4.7,0,8.9,0.8,12.5,2.3c3.6,1.5,6.4,3.8,8.3,6.8c1.9,3,3,6.4,3.1,10.2l-8.1,0.6
				c-0.4-4.1-1.9-7.1-4.4-9.2c-2.5-2.1-6.2-3.1-11.1-3.1c-5.1,0-8.8,0.9-11.2,2.8c-2.3,1.9-3.5,4.2-3.5,6.8c0,2.3,0.8,4.2,2.5,5.7
				c1.6,1.5,5.9,3,12.7,4.6c6.9,1.6,11.6,2.9,14.1,4.1c3.7,1.7,6.5,3.9,8.2,6.6c1.8,2.7,2.7,5.7,2.7,9.2c0,3.4-1,6.7-2.9,9.7
				c-1.9,3-4.7,5.4-8.4,7.1c-3.6,1.7-7.7,2.5-12.3,2.5c-5.8,0-10.6-0.8-14.5-2.5c-3.9-1.7-7-4.3-9.2-7.7
				C5.3,363.4,4.1,359.5,4,355.2z"/>
			<path class="st6" d="M59.3,375.9l24.5-64.4h9.1l26.1,64.4h-9.6l-7.4-19.5H75.3l-7,19.5H59.3z M77.7,349.4h21.6l-6.7-17.8
				c-2-5.4-3.5-9.9-4.5-13.4c-0.8,4.1-2,8.2-3.4,12.3L77.7,349.4z"/>
			<path class="st6" d="M125.7,375.9v-64.4h24.1c4.2,0,7.5,0.2,9.7,0.6c3.1,0.5,5.8,1.5,7.9,3c2.1,1.5,3.8,3.6,5.1,6.2
				c1.3,2.7,1.9,5.6,1.9,8.8c0,5.5-1.7,10.1-5.2,13.9c-3.5,3.8-9.7,5.7-18.7,5.7h-16.4v26.2H125.7z M134.2,342.1h16.5
				c5.5,0,9.3-1,11.6-3.1c2.3-2,3.4-4.9,3.4-8.7c0-2.7-0.7-5-2-6.9c-1.3-1.9-3.1-3.2-5.3-3.8c-1.4-0.4-4-0.6-7.9-0.6h-16.3V342.1z"
				/>
			<path class="st6" d="M186.6,375.9v-64.4h8.4v64.4H186.6z"/>
			<path class="st6" d="M210.1,375.9v-64.4h46.1v7.6h-37.7v19.7h35.3v7.6h-35.3v21.9h39.2v7.6H210.1z"/>
			<path class="st6" d="M269.3,375.9v-64.4h8.7l33.5,50.6v-50.6h8.1v64.4h-8.7l-33.5-50.6v50.6H269.3z"/>
			<path class="st6" d="M379.2,353.3l8.4,2.2c-1.8,7-5,12.3-9.5,16c-4.6,3.7-10.2,5.5-16.9,5.5c-6.9,0-12.5-1.4-16.8-4.2
				c-4.3-2.8-7.6-6.9-9.8-12.3c-2.2-5.4-3.4-11.1-3.4-17.3c0-6.7,1.3-12.6,3.8-17.6c2.5-5,6.1-8.8,10.8-11.4
				c4.7-2.6,9.8-3.9,15.5-3.9c6.4,0,11.7,1.6,16.1,4.9c4.3,3.3,7.4,7.9,9.1,13.8l-8.3,2c-1.5-4.7-3.6-8.1-6.4-10.2
				c-2.8-2.1-6.4-3.2-10.6-3.2c-4.9,0-9,1.2-12.3,3.6c-3.3,2.4-5.6,5.6-6.9,9.6c-1.3,4-2,8.1-2,12.4c0,5.5,0.8,10.3,2.4,14.3
				c1.6,4.1,4,7.1,7.4,9.2c3.3,2,6.9,3,10.8,3c4.7,0,8.7-1.4,12-4.1C375.8,362.8,378,358.7,379.2,353.3z"/>
			<path class="st6" d="M398.2,375.9v-64.4h46.1v7.6h-37.7v19.7h35.3v7.6h-35.3v21.9h39.2v7.6H398.2z"/>
		</g>
		<g>
			<path class="st6" d="M475.8,375.9v-64.4h8.4v26.5h33.2v-26.5h8.4v64.4h-8.4v-30.4h-33.2v30.4H475.8z"/>
			<path class="st6" d="M585.4,353.3l8.4,2.2c-1.8,7-5,12.3-9.5,16c-4.6,3.7-10.2,5.5-16.9,5.5c-6.9,0-12.5-1.4-16.8-4.2
				c-4.3-2.8-7.6-6.9-9.8-12.3c-2.2-5.4-3.4-11.1-3.4-17.3c0-6.7,1.3-12.6,3.8-17.6c2.5-5,6.1-8.8,10.8-11.4
				c4.7-2.6,9.8-3.9,15.5-3.9c6.4,0,11.7,1.6,16.1,4.9c4.4,3.3,7.4,7.9,9.1,13.8l-8.3,2c-1.5-4.7-3.6-8.1-6.4-10.2
				c-2.8-2.1-6.4-3.2-10.6-3.2c-4.9,0-9,1.2-12.3,3.6s-5.6,5.6-6.9,9.6s-2,8.1-2,12.4c0,5.5,0.8,10.3,2.4,14.3
				c1.6,4.1,4,7.1,7.4,9.2s6.9,3,10.8,3c4.7,0,8.7-1.4,12-4.1C582,362.8,584.2,358.7,585.4,353.3z"/>
			<path class="st6" d="M603.9,375.9v-64.4h12.7l15.1,45.6c1.4,4.2,2.4,7.4,3,9.5c0.7-2.3,1.9-5.8,3.4-10.3l15.3-44.8h11.4v64.4
				h-8.1V322l-18.5,53.9h-7.6l-18.4-54.8v54.8H603.9z"/>
		</g>
	</g>
</g>
</svg>
